<mxfile host="app.diagrams.net" modified="2023-10-16T19:03:30.642Z" agent="Mozilla/5.0 (X11; Linux x86_64; rv:109.0) Gecko/20100101 Firefox/115.0" etag="UUm0c3HApLLg4aU560oL" version="21.7.5" type="github">
  <diagram name="Page-1" id="zVYzukVy8XgZcWH6YYEZ">
    <mxGraphModel dx="2030" dy="1643" grid="1" gridSize="10" guides="1" tooltips="1" connect="1" arrows="1" fold="1" page="1" pageScale="1" pageWidth="850" pageHeight="1100" math="0" shadow="0">
      <root>
        <mxCell id="0" />
        <mxCell id="1" parent="0" />
        <mxCell id="6vjLHSTCWr16vqxmGMeG-8" style="edgeStyle=orthogonalEdgeStyle;rounded=0;orthogonalLoop=1;jettySize=auto;html=1;" parent="1" source="6vjLHSTCWr16vqxmGMeG-1" target="6vjLHSTCWr16vqxmGMeG-7" edge="1">
          <mxGeometry relative="1" as="geometry" />
        </mxCell>
        <mxCell id="6vjLHSTCWr16vqxmGMeG-9" value="- Submit App&lt;br&gt;- Test App" style="edgeLabel;html=1;align=center;verticalAlign=middle;resizable=0;points=[];" parent="6vjLHSTCWr16vqxmGMeG-8" vertex="1" connectable="0">
          <mxGeometry x="-0.3044" y="2" relative="1" as="geometry">
            <mxPoint x="3" y="2" as="offset" />
          </mxGeometry>
        </mxCell>
        <mxCell id="6vjLHSTCWr16vqxmGMeG-1" value="Dev" style="shape=umlActor;verticalLabelPosition=bottom;verticalAlign=top;html=1;outlineConnect=0;" parent="1" vertex="1">
          <mxGeometry x="80" y="110" width="30" height="60" as="geometry" />
        </mxCell>
        <mxCell id="6vjLHSTCWr16vqxmGMeG-16" style="edgeStyle=orthogonalEdgeStyle;rounded=0;orthogonalLoop=1;jettySize=auto;html=1;" parent="1" source="6vjLHSTCWr16vqxmGMeG-2" target="6vjLHSTCWr16vqxmGMeG-7" edge="1">
          <mxGeometry relative="1" as="geometry">
            <Array as="points">
              <mxPoint x="310" y="310" />
            </Array>
          </mxGeometry>
        </mxCell>
        <mxCell id="6vjLHSTCWr16vqxmGMeG-25" value="- Submit Exploit&lt;br&gt;- Test Explot" style="edgeLabel;html=1;align=center;verticalAlign=middle;resizable=0;points=[];" parent="6vjLHSTCWr16vqxmGMeG-16" vertex="1" connectable="0">
          <mxGeometry x="0.1687" y="-2" relative="1" as="geometry">
            <mxPoint x="-40" y="-2" as="offset" />
          </mxGeometry>
        </mxCell>
        <mxCell id="6vjLHSTCWr16vqxmGMeG-2" value="Hacker" style="shape=umlActor;verticalLabelPosition=bottom;verticalAlign=top;html=1;outlineConnect=0;" parent="1" vertex="1">
          <mxGeometry x="80" y="280" width="30" height="60" as="geometry" />
        </mxCell>
        <mxCell id="6vjLHSTCWr16vqxmGMeG-7" value="Bug Buster" style="whiteSpace=wrap;html=1;aspect=fixed;" parent="1" vertex="1">
          <mxGeometry x="270" y="190" width="80" height="80" as="geometry" />
        </mxCell>
        <mxCell id="6vjLHSTCWr16vqxmGMeG-32" value="&lt;div&gt;# code/start.sh&lt;/div&gt;&lt;div&gt;&lt;br&gt;&lt;/div&gt;&lt;div&gt;lua start.lua&lt;/div&gt;&lt;div&gt;&lt;br&gt;&lt;/div&gt;&lt;div&gt;# code/start.lua&lt;/div&gt;&lt;div&gt;&lt;br&gt;&lt;/div&gt;&lt;div&gt;_G.os = nil&lt;/div&gt;&lt;div&gt;input = io.read()&lt;/div&gt;&lt;div&gt;exec(input)&lt;br&gt;&lt;/div&gt;" style="whiteSpace=wrap;html=1;aspect=fixed;align=left;fontFamily=Courier New;" parent="1" vertex="1">
          <mxGeometry x="160" y="980" width="250" height="250" as="geometry" />
        </mxCell>
        <mxCell id="6vjLHSTCWr16vqxmGMeG-33" value="# exploit/start.sh&lt;br&gt;&lt;div&gt;&lt;br&gt;&lt;/div&gt;&lt;div&gt;echo&quot;&lt;/div&gt;&lt;div&gt;// break lua&lt;br&gt;&lt;/div&gt;&lt;div&gt;&quot;&lt;br&gt;&lt;/div&gt;" style="whiteSpace=wrap;html=1;aspect=fixed;align=left;fontFamily=Courier New;" parent="1" vertex="1">
          <mxGeometry x="415" y="980" width="250" height="250" as="geometry" />
        </mxCell>
        <mxCell id="6vjLHSTCWr16vqxmGMeG-45" value="" style="edgeStyle=orthogonalEdgeStyle;rounded=0;orthogonalLoop=1;jettySize=auto;html=1;" parent="1" source="6vjLHSTCWr16vqxmGMeG-43" target="6vjLHSTCWr16vqxmGMeG-7" edge="1">
          <mxGeometry relative="1" as="geometry" />
        </mxCell>
        <mxCell id="6vjLHSTCWr16vqxmGMeG-48" value="- Sponsor App&lt;br&gt;- Withdraw Bounty&lt;br&gt; " style="edgeLabel;html=1;align=center;verticalAlign=middle;resizable=0;points=[];" parent="6vjLHSTCWr16vqxmGMeG-45" vertex="1" connectable="0">
          <mxGeometry x="0.1359" y="2" relative="1" as="geometry">
            <mxPoint x="8" y="-2" as="offset" />
          </mxGeometry>
        </mxCell>
        <mxCell id="6vjLHSTCWr16vqxmGMeG-43" value="Sponsor" style="shape=umlActor;verticalLabelPosition=bottom;verticalAlign=top;html=1;outlineConnect=0;" parent="1" vertex="1">
          <mxGeometry x="565" y="200" width="30" height="60" as="geometry" />
        </mxCell>
        <mxCell id="6vjLHSTCWr16vqxmGMeG-68" style="edgeStyle=orthogonalEdgeStyle;rounded=0;orthogonalLoop=1;jettySize=auto;html=1;" parent="1" source="6vjLHSTCWr16vqxmGMeG-66" target="6vjLHSTCWr16vqxmGMeG-67" edge="1">
          <mxGeometry relative="1" as="geometry" />
        </mxCell>
        <mxCell id="6vjLHSTCWr16vqxmGMeG-69" value="1" style="edgeLabel;html=1;align=center;verticalAlign=middle;resizable=0;points=[];" parent="6vjLHSTCWr16vqxmGMeG-68" vertex="1" connectable="0">
          <mxGeometry x="-0.7425" y="3" relative="1" as="geometry">
            <mxPoint x="-8" y="-7" as="offset" />
          </mxGeometry>
        </mxCell>
        <mxCell id="6vjLHSTCWr16vqxmGMeG-70" value="N" style="edgeLabel;html=1;align=center;verticalAlign=middle;resizable=0;points=[];" parent="6vjLHSTCWr16vqxmGMeG-68" vertex="1" connectable="0">
          <mxGeometry x="0.5563" y="-4" relative="1" as="geometry">
            <mxPoint x="18" y="-14" as="offset" />
          </mxGeometry>
        </mxCell>
        <mxCell id="hhckV3p7YOsD2mqn5yDh-28" style="edgeStyle=orthogonalEdgeStyle;rounded=0;orthogonalLoop=1;jettySize=auto;html=1;entryX=0.5;entryY=0;entryDx=0;entryDy=0;" edge="1" parent="1" source="6vjLHSTCWr16vqxmGMeG-66" target="hhckV3p7YOsD2mqn5yDh-27">
          <mxGeometry relative="1" as="geometry" />
        </mxCell>
        <mxCell id="hhckV3p7YOsD2mqn5yDh-29" value="0/1" style="edgeLabel;html=1;align=center;verticalAlign=middle;resizable=0;points=[];" vertex="1" connectable="0" parent="hhckV3p7YOsD2mqn5yDh-28">
          <mxGeometry x="-0.5333" y="1" relative="1" as="geometry">
            <mxPoint x="9" y="41" as="offset" />
          </mxGeometry>
        </mxCell>
        <mxCell id="hhckV3p7YOsD2mqn5yDh-30" value="1" style="edgeLabel;html=1;align=center;verticalAlign=middle;resizable=0;points=[];" vertex="1" connectable="0" parent="hhckV3p7YOsD2mqn5yDh-28">
          <mxGeometry x="-0.6963" y="-2" relative="1" as="geometry">
            <mxPoint x="12" y="-3" as="offset" />
          </mxGeometry>
        </mxCell>
        <mxCell id="6vjLHSTCWr16vqxmGMeG-66" value="&lt;p style=&quot;margin:0px;margin-top:4px;text-align:center;text-decoration:underline;&quot;&gt;&lt;b&gt;App&lt;/b&gt;&lt;/p&gt;&lt;hr&gt;&lt;p style=&quot;margin:0px;margin-left:8px;&quot;&gt;- address&lt;/p&gt;&lt;p style=&quot;margin:0px;margin-left:8px;&quot;&gt;- name&lt;/p&gt;&lt;p style=&quot;margin:0px;margin-left:8px;&quot;&gt;- description&lt;/p&gt;&lt;p style=&quot;margin:0px;margin-left:8px;&quot;&gt;- inputIndex&lt;br&gt;&lt;/p&gt;&lt;p style=&quot;margin:0px;margin-left:8px;&quot;&gt;- codeLocation (dir)&lt;br&gt;- deadLine&lt;/p&gt;&lt;p style=&quot;margin:0px;margin-left:8px;&quot;&gt;- open for hackers (bool)&lt;br&gt;&lt;/p&gt;" style="verticalAlign=top;align=left;overflow=fill;fontSize=12;fontFamily=Helvetica;html=1;whiteSpace=wrap;" parent="1" vertex="1">
          <mxGeometry x="320" y="500" width="160" height="150" as="geometry" />
        </mxCell>
        <mxCell id="6vjLHSTCWr16vqxmGMeG-67" value="&lt;p style=&quot;margin:0px;margin-top:4px;text-align:center;text-decoration:underline;&quot;&gt;&lt;b&gt;Sponsorship&lt;/b&gt;&lt;/p&gt;&lt;hr&gt;&lt;p style=&quot;margin:0px;margin-left:8px;&quot;&gt;- sponsorAddress&lt;br&gt;- value&lt;br&gt;&lt;/p&gt;" style="verticalAlign=top;align=left;overflow=fill;fontSize=12;fontFamily=Helvetica;html=1;whiteSpace=wrap;" parent="1" vertex="1">
          <mxGeometry x="595" y="520" width="160" height="110" as="geometry" />
        </mxCell>
        <mxCell id="6vjLHSTCWr16vqxmGMeG-72" style="edgeStyle=orthogonalEdgeStyle;rounded=0;orthogonalLoop=1;jettySize=auto;html=1;entryX=0;entryY=0.5;entryDx=0;entryDy=0;" parent="1" source="6vjLHSTCWr16vqxmGMeG-71" target="6vjLHSTCWr16vqxmGMeG-66" edge="1">
          <mxGeometry relative="1" as="geometry" />
        </mxCell>
        <mxCell id="6vjLHSTCWr16vqxmGMeG-73" value="1" style="edgeLabel;html=1;align=center;verticalAlign=middle;resizable=0;points=[];" parent="6vjLHSTCWr16vqxmGMeG-72" vertex="1" connectable="0">
          <mxGeometry x="-0.1103" y="-2" relative="1" as="geometry">
            <mxPoint x="-48" y="-12" as="offset" />
          </mxGeometry>
        </mxCell>
        <mxCell id="6vjLHSTCWr16vqxmGMeG-74" value="N" style="edgeLabel;html=1;align=center;verticalAlign=middle;resizable=0;points=[];" parent="6vjLHSTCWr16vqxmGMeG-72" vertex="1" connectable="0">
          <mxGeometry x="0.3671" relative="1" as="geometry">
            <mxPoint x="28" y="-10" as="offset" />
          </mxGeometry>
        </mxCell>
        <mxCell id="6vjLHSTCWr16vqxmGMeG-71" value="&lt;p style=&quot;margin:0px;margin-top:4px;text-align:center;text-decoration:underline;&quot;&gt;&lt;b&gt;Bug Buster State&lt;br&gt;&lt;/b&gt;&lt;/p&gt;&lt;hr&gt;&amp;nbsp;" style="verticalAlign=top;align=left;overflow=fill;fontSize=12;fontFamily=Helvetica;html=1;whiteSpace=wrap;" parent="1" vertex="1">
          <mxGeometry x="40" y="520" width="160" height="110" as="geometry" />
        </mxCell>
        <mxCell id="hhckV3p7YOsD2mqn5yDh-1" value="Atores" style="text;html=1;strokeColor=none;fillColor=none;align=center;verticalAlign=middle;whiteSpace=wrap;rounded=0;fontSize=30;" vertex="1" parent="1">
          <mxGeometry x="400" y="50" width="60" height="30" as="geometry" />
        </mxCell>
        <mxCell id="hhckV3p7YOsD2mqn5yDh-3" value="Modelo" style="text;html=1;strokeColor=none;fillColor=none;align=center;verticalAlign=middle;whiteSpace=wrap;rounded=0;fontSize=30;" vertex="1" parent="1">
          <mxGeometry x="400" y="440" width="60" height="30" as="geometry" />
        </mxCell>
        <mxCell id="hhckV3p7YOsD2mqn5yDh-5" value="Exemplo em Lua" style="text;html=1;strokeColor=none;fillColor=none;align=center;verticalAlign=middle;whiteSpace=wrap;rounded=0;fontSize=30;" vertex="1" parent="1">
          <mxGeometry x="270" y="910" width="280" height="30" as="geometry" />
        </mxCell>
        <mxCell id="hhckV3p7YOsD2mqn5yDh-6" value="Mockup" style="text;html=1;strokeColor=none;fillColor=none;align=center;verticalAlign=middle;whiteSpace=wrap;rounded=0;fontSize=30;" vertex="1" parent="1">
          <mxGeometry x="705" y="1280" width="280" height="30" as="geometry" />
        </mxCell>
        <mxCell id="hhckV3p7YOsD2mqn5yDh-10" value="Index" style="strokeWidth=1;shadow=0;dashed=0;align=center;html=1;shape=mxgraph.mockup.containers.window;align=left;verticalAlign=top;spacingLeft=8;strokeColor2=#008cff;strokeColor3=#c4c4c4;fontColor=#666666;mainText=;fontSize=17;labelBackgroundColor=none;whiteSpace=wrap;" vertex="1" parent="1">
          <mxGeometry x="705.39" y="1380" width="550" height="380" as="geometry" />
        </mxCell>
        <UserObject label="" link="DApp.Name" id="hhckV3p7YOsD2mqn5yDh-17">
          <mxCell style="verticalLabelPosition=bottom;shadow=0;dashed=0;align=center;html=1;verticalAlign=top;strokeWidth=1;shape=mxgraph.mockup.navigation.coverFlow;strokeColor=#999999;" vertex="1" parent="1">
            <mxGeometry x="775.39" y="1500" width="400" height="200" as="geometry" />
          </mxCell>
        </UserObject>
        <mxCell id="hhckV3p7YOsD2mqn5yDh-18" value="" style="image;html=1;image=img/lib/clip_art/finance/Piggy_Bank_128x128.png" vertex="1" parent="1">
          <mxGeometry x="940.39" y="1570" width="80" height="80" as="geometry" />
        </mxCell>
        <mxCell id="hhckV3p7YOsD2mqn5yDh-19" value="App.Name" style="text;html=1;align=center;verticalAlign=middle;resizable=0;points=[];autosize=1;strokeColor=none;fillColor=none;" vertex="1" parent="1">
          <mxGeometry x="935.39" y="1510" width="80" height="30" as="geometry" />
        </mxCell>
        <mxCell id="hhckV3p7YOsD2mqn5yDh-20" value="App.Bounty" style="text;html=1;align=center;verticalAlign=middle;resizable=0;points=[];autosize=1;strokeColor=none;fillColor=none;" vertex="1" parent="1">
          <mxGeometry x="930.39" y="1530" width="90" height="30" as="geometry" />
        </mxCell>
        <mxCell id="hhckV3p7YOsD2mqn5yDh-21" value="App.Name" style="strokeWidth=1;shadow=0;dashed=0;align=center;html=1;shape=mxgraph.mockup.containers.window;align=left;verticalAlign=top;spacingLeft=8;strokeColor2=#008cff;strokeColor3=#c4c4c4;fontColor=#666666;mainText=;fontSize=17;labelBackgroundColor=none;whiteSpace=wrap;" vertex="1" parent="1">
          <mxGeometry x="705.39" y="1820" width="550" height="380" as="geometry" />
        </mxCell>
        <mxCell id="hhckV3p7YOsD2mqn5yDh-23" value="" style="image;html=1;image=img/lib/clip_art/finance/Piggy_Bank_128x128.png" vertex="1" parent="1">
          <mxGeometry x="930.39" y="1860" width="80" height="80" as="geometry" />
        </mxCell>
        <mxCell id="hhckV3p7YOsD2mqn5yDh-26" value="- name&lt;br&gt;&lt;p style=&quot;margin:0px;margin-left:8px;&quot;&gt;- address&lt;/p&gt;&lt;p style=&quot;margin:0px;margin-left:8px;&quot;&gt;- description&lt;br&gt;&lt;/p&gt;&lt;p style=&quot;margin:0px;margin-left:8px;&quot;&gt;- download code&lt;br&gt;- deadLine (start/end)&lt;/p&gt;&lt;p style=&quot;margin:0px;margin-left:8px;&quot;&gt;- sponsor list&lt;/p&gt;&lt;div&gt;- open for hackers?&lt;/div&gt;&lt;div&gt;- exploit (if exists)&lt;br&gt;&lt;/div&gt;" style="text;html=1;align=center;verticalAlign=middle;resizable=0;points=[];autosize=1;strokeColor=none;fillColor=none;" vertex="1" parent="1">
          <mxGeometry x="890.39" y="1940" width="150" height="130" as="geometry" />
        </mxCell>
        <mxCell id="hhckV3p7YOsD2mqn5yDh-27" value="&lt;p style=&quot;margin:0px;margin-top:4px;text-align:center;text-decoration:underline;&quot;&gt;&lt;b&gt;Exploit&lt;/b&gt;&lt;/p&gt;&lt;hr&gt;&lt;p style=&quot;margin:0px;margin-left:8px;&quot;&gt;- hacker address&lt;/p&gt;&lt;p style=&quot;margin:0px;margin-left:8px;&quot;&gt;- inputIndex&lt;br&gt;&lt;/p&gt;&amp;nbsp; - code (Location)" style="verticalAlign=top;align=left;overflow=fill;fontSize=12;fontFamily=Helvetica;html=1;whiteSpace=wrap;" vertex="1" parent="1">
          <mxGeometry x="320" y="720" width="160" height="140" as="geometry" />
        </mxCell>
        <mxCell id="hhckV3p7YOsD2mqn5yDh-35" style="edgeStyle=orthogonalEdgeStyle;rounded=0;orthogonalLoop=1;jettySize=auto;html=1;" edge="1" parent="1" source="hhckV3p7YOsD2mqn5yDh-31" target="hhckV3p7YOsD2mqn5yDh-21">
          <mxGeometry relative="1" as="geometry" />
        </mxCell>
        <mxCell id="hhckV3p7YOsD2mqn5yDh-31" value="Details" style="strokeWidth=1;shadow=0;dashed=0;align=center;html=1;shape=mxgraph.mockup.buttons.button;strokeColor=#666666;fontColor=#ffffff;mainText=;buttonStyle=round;fontSize=17;fontStyle=1;fillColor=#008cff;whiteSpace=wrap;" vertex="1" parent="1">
          <mxGeometry x="950.39" y="1670" width="60" height="20" as="geometry" />
        </mxCell>
        <mxCell id="hhckV3p7YOsD2mqn5yDh-39" style="edgeStyle=orthogonalEdgeStyle;rounded=0;orthogonalLoop=1;jettySize=auto;html=1;" edge="1" parent="1" source="hhckV3p7YOsD2mqn5yDh-32" target="hhckV3p7YOsD2mqn5yDh-34">
          <mxGeometry relative="1" as="geometry" />
        </mxCell>
        <mxCell id="hhckV3p7YOsD2mqn5yDh-32" value="Exploit" style="strokeWidth=1;shadow=0;dashed=0;align=center;html=1;shape=mxgraph.mockup.buttons.button;strokeColor=#666666;fontColor=#ffffff;mainText=;buttonStyle=round;fontSize=17;fontStyle=1;fillColor=#008cff;whiteSpace=wrap;" vertex="1" parent="1">
          <mxGeometry x="745" y="2110" width="120" height="40" as="geometry" />
        </mxCell>
        <mxCell id="hhckV3p7YOsD2mqn5yDh-41" style="edgeStyle=orthogonalEdgeStyle;rounded=0;orthogonalLoop=1;jettySize=auto;html=1;" edge="1" parent="1" source="hhckV3p7YOsD2mqn5yDh-45" target="hhckV3p7YOsD2mqn5yDh-47">
          <mxGeometry relative="1" as="geometry" />
        </mxCell>
        <mxCell id="hhckV3p7YOsD2mqn5yDh-49" style="edgeStyle=orthogonalEdgeStyle;rounded=0;orthogonalLoop=1;jettySize=auto;html=1;" edge="1" parent="1" source="hhckV3p7YOsD2mqn5yDh-33" target="hhckV3p7YOsD2mqn5yDh-40">
          <mxGeometry relative="1" as="geometry">
            <mxPoint x="980.3809523809523" y="2160" as="sourcePoint" />
          </mxGeometry>
        </mxCell>
        <mxCell id="hhckV3p7YOsD2mqn5yDh-33" value="Sponsor" style="strokeWidth=1;shadow=0;dashed=0;align=center;html=1;shape=mxgraph.mockup.buttons.button;strokeColor=#666666;fontColor=#ffffff;mainText=;buttonStyle=round;fontSize=17;fontStyle=1;fillColor=#008cff;whiteSpace=wrap;" vertex="1" parent="1">
          <mxGeometry x="920" y="2110" width="120" height="40" as="geometry" />
        </mxCell>
        <mxCell id="hhckV3p7YOsD2mqn5yDh-34" value="Exploit" style="strokeWidth=1;shadow=0;dashed=0;align=center;html=1;shape=mxgraph.mockup.containers.window;align=left;verticalAlign=top;spacingLeft=8;strokeColor2=#008cff;strokeColor3=#c4c4c4;fontColor=#666666;mainText=;fontSize=17;labelBackgroundColor=none;whiteSpace=wrap;" vertex="1" parent="1">
          <mxGeometry x="610" y="2320" width="160" height="270" as="geometry" />
        </mxCell>
        <mxCell id="hhckV3p7YOsD2mqn5yDh-38" style="edgeStyle=orthogonalEdgeStyle;rounded=0;orthogonalLoop=1;jettySize=auto;html=1;" edge="1" parent="1" source="hhckV3p7YOsD2mqn5yDh-36" target="hhckV3p7YOsD2mqn5yDh-37">
          <mxGeometry relative="1" as="geometry" />
        </mxCell>
        <mxCell id="hhckV3p7YOsD2mqn5yDh-36" value="Submit App" style="strokeWidth=1;shadow=0;dashed=0;align=center;html=1;shape=mxgraph.mockup.buttons.button;strokeColor=#666666;fontColor=#ffffff;mainText=;buttonStyle=round;fontSize=17;fontStyle=1;fillColor=#008cff;whiteSpace=wrap;" vertex="1" parent="1">
          <mxGeometry x="1095.3899999999999" y="1430" width="130" height="40" as="geometry" />
        </mxCell>
        <mxCell id="hhckV3p7YOsD2mqn5yDh-37" value="Submit App" style="strokeWidth=1;shadow=0;dashed=0;align=center;html=1;shape=mxgraph.mockup.containers.window;align=left;verticalAlign=top;spacingLeft=8;strokeColor2=#008cff;strokeColor3=#c4c4c4;fontColor=#666666;mainText=;fontSize=17;labelBackgroundColor=none;whiteSpace=wrap;" vertex="1" parent="1">
          <mxGeometry x="1385.3899999999999" y="1440" width="204.61" height="380" as="geometry" />
        </mxCell>
        <mxCell id="hhckV3p7YOsD2mqn5yDh-40" value="Sponsor" style="strokeWidth=1;shadow=0;dashed=0;align=center;html=1;shape=mxgraph.mockup.containers.window;align=left;verticalAlign=top;spacingLeft=8;strokeColor2=#008cff;strokeColor3=#c4c4c4;fontColor=#666666;mainText=;fontSize=17;labelBackgroundColor=none;whiteSpace=wrap;" vertex="1" parent="1">
          <mxGeometry x="894.4100000000001" y="2360" width="171.18" height="270" as="geometry" />
        </mxCell>
        <mxCell id="hhckV3p7YOsD2mqn5yDh-42" value="&lt;p style=&quot;margin:0px;margin-left:8px;&quot;&gt;- address (vem da wallet)&lt;br&gt;- Img link&lt;br&gt;&lt;/p&gt;&lt;p style=&quot;margin:0px;margin-left:8px;&quot;&gt;- name (campo)&lt;br&gt;&lt;/p&gt;&lt;p style=&quot;margin:0px;margin-left:8px;&quot;&gt;- description (campo)&lt;br&gt;&lt;/p&gt;&lt;p style=&quot;margin:0px;margin-left:8px;&quot;&gt;- code (zip file)&lt;br&gt;- deadLine&lt;/p&gt;" style="text;html=1;align=center;verticalAlign=middle;resizable=0;points=[];autosize=1;strokeColor=none;fillColor=none;" vertex="1" parent="1">
          <mxGeometry x="1402.69" y="1595" width="170" height="100" as="geometry" />
        </mxCell>
        <mxCell id="hhckV3p7YOsD2mqn5yDh-43" value="" style="image;html=1;image=img/lib/clip_art/finance/Credit_Card_128x128.png" vertex="1" parent="1">
          <mxGeometry x="1500" y="1480" width="80" height="80" as="geometry" />
        </mxCell>
        <mxCell id="hhckV3p7YOsD2mqn5yDh-45" value="Withdraw" style="strokeWidth=1;shadow=0;dashed=0;align=center;html=1;shape=mxgraph.mockup.buttons.button;strokeColor=#666666;fontColor=#ffffff;mainText=;buttonStyle=round;fontSize=17;fontStyle=1;fillColor=#008cff;whiteSpace=wrap;" vertex="1" parent="1">
          <mxGeometry x="1095.3899999999999" y="2110" width="120" height="40" as="geometry" />
        </mxCell>
        <mxCell id="hhckV3p7YOsD2mqn5yDh-47" value="Withdraw" style="strokeWidth=1;shadow=0;dashed=0;align=center;html=1;shape=mxgraph.mockup.containers.window;align=left;verticalAlign=top;spacingLeft=8;strokeColor2=#008cff;strokeColor3=#c4c4c4;fontColor=#666666;mainText=;fontSize=17;labelBackgroundColor=none;whiteSpace=wrap;" vertex="1" parent="1">
          <mxGeometry x="1200" y="2380" width="171.18" height="270" as="geometry" />
        </mxCell>
        <mxCell id="hhckV3p7YOsD2mqn5yDh-44" value="" style="image;html=1;image=img/lib/clip_art/finance/Credit_Card_128x128.png" vertex="1" parent="1">
          <mxGeometry x="1290" y="2415" width="80" height="80" as="geometry" />
        </mxCell>
        <mxCell id="hhckV3p7YOsD2mqn5yDh-48" value="" style="image;html=1;image=img/lib/clip_art/finance/Credit_Card_128x128.png" vertex="1" parent="1">
          <mxGeometry x="979.02" y="2395" width="80" height="80" as="geometry" />
        </mxCell>
        <mxCell id="hhckV3p7YOsD2mqn5yDh-50" value="- sponsor address (vem da wallet)&lt;br&gt;- app address (vem da tela anterior)" style="text;whiteSpace=wrap;html=1;" vertex="1" parent="1">
          <mxGeometry x="1215.39" y="2520" width="170" height="40" as="geometry" />
        </mxCell>
        <mxCell id="hhckV3p7YOsD2mqn5yDh-53" value="" style="shape=partialRectangle;whiteSpace=wrap;html=1;top=0;bottom=0;fillColor=none;" vertex="1" parent="1">
          <mxGeometry x="1070" y="2100" width="10" height="60" as="geometry" />
        </mxCell>
        <mxCell id="hhckV3p7YOsD2mqn5yDh-54" value="&lt;div&gt;- sponsor address&lt;br&gt;(vem da wallet)&lt;/div&gt;&lt;div&gt;- app address (vem da tela anterior)&lt;br&gt;&lt;/div&gt;&lt;div&gt;- value&lt;/div&gt;" style="text;whiteSpace=wrap;html=1;" vertex="1" parent="1">
          <mxGeometry x="895.5900000000001" y="2475" width="170" height="40" as="geometry" />
        </mxCell>
        <mxCell id="hhckV3p7YOsD2mqn5yDh-55" value="" style="image;html=1;image=img/lib/clip_art/finance/Credit_Card_128x128.png" vertex="1" parent="1">
          <mxGeometry x="685" y="2360" width="80" height="80" as="geometry" />
        </mxCell>
        <mxCell id="hhckV3p7YOsD2mqn5yDh-56" value="&lt;p style=&quot;margin:0px;margin-left:8px;&quot;&gt;- hacker address (vem da wallet)&lt;br&gt;- app address (vem da tela anterior)&lt;/p&gt;&amp;nbsp; - code (zip)" style="text;whiteSpace=wrap;html=1;" vertex="1" parent="1">
          <mxGeometry x="615" y="2440" width="130" height="70" as="geometry" />
        </mxCell>
        <mxCell id="hhckV3p7YOsD2mqn5yDh-57" value="Input que &lt;br&gt;pode gerar voucher" style="ellipse;shape=cloud;whiteSpace=wrap;html=1;" vertex="1" parent="1">
          <mxGeometry x="567.5" y="2590" width="225" height="140" as="geometry" />
        </mxCell>
        <mxCell id="hhckV3p7YOsD2mqn5yDh-58" value="Input que &lt;br&gt;pode gerar voucher" style="ellipse;shape=cloud;whiteSpace=wrap;html=1;" vertex="1" parent="1">
          <mxGeometry x="1177.69" y="2640" width="225" height="140" as="geometry" />
        </mxCell>
        <mxCell id="hhckV3p7YOsD2mqn5yDh-59" value="Input que &lt;br&gt;não gera voucher" style="ellipse;shape=cloud;whiteSpace=wrap;html=1;" vertex="1" parent="1">
          <mxGeometry x="1375.19" y="1820" width="225" height="140" as="geometry" />
        </mxCell>
        <mxCell id="hhckV3p7YOsD2mqn5yDh-60" value="Input que &lt;br&gt;pode gerar voucher" style="ellipse;shape=cloud;whiteSpace=wrap;html=1;" vertex="1" parent="1">
          <mxGeometry x="867.5" y="2630" width="225" height="140" as="geometry" />
        </mxCell>
        <mxCell id="hhckV3p7YOsD2mqn5yDh-62" value="habilitado se !open" style="text;html=1;strokeColor=none;fillColor=none;align=center;verticalAlign=middle;whiteSpace=wrap;rounded=0;" vertex="1" parent="1">
          <mxGeometry x="1085.39" y="2080" width="140" height="30" as="geometry" />
        </mxCell>
        <mxCell id="hhckV3p7YOsD2mqn5yDh-64" value="habilitado se open" style="text;html=1;strokeColor=none;fillColor=none;align=center;verticalAlign=middle;whiteSpace=wrap;rounded=0;" vertex="1" parent="1">
          <mxGeometry x="910" y="2080" width="140" height="30" as="geometry" />
        </mxCell>
        <mxCell id="hhckV3p7YOsD2mqn5yDh-66" style="edgeStyle=orthogonalEdgeStyle;rounded=0;orthogonalLoop=1;jettySize=auto;html=1;" edge="1" parent="1" source="hhckV3p7YOsD2mqn5yDh-65">
          <mxGeometry relative="1" as="geometry">
            <mxPoint x="550" y="2030" as="targetPoint" />
          </mxGeometry>
        </mxCell>
        <mxCell id="hhckV3p7YOsD2mqn5yDh-65" value="Try to break it" style="strokeWidth=1;shadow=0;dashed=0;align=center;html=1;shape=mxgraph.mockup.buttons.button;strokeColor=#666666;fontColor=#ffffff;mainText=;buttonStyle=round;fontSize=17;fontStyle=1;fillColor=#008cff;whiteSpace=wrap;" vertex="1" parent="1">
          <mxGeometry x="745" y="2010" width="120" height="40" as="geometry" />
        </mxCell>
        <mxCell id="hhckV3p7YOsD2mqn5yDh-67" value="Try to Break it online" style="strokeWidth=1;shadow=0;dashed=0;align=center;html=1;shape=mxgraph.mockup.containers.window;align=left;verticalAlign=top;spacingLeft=8;strokeColor2=#008cff;strokeColor3=#c4c4c4;fontColor=#666666;mainText=;fontSize=17;labelBackgroundColor=none;whiteSpace=wrap;" vertex="1" parent="1">
          <mxGeometry x="40" y="1840" width="510" height="380" as="geometry" />
        </mxCell>
        <mxCell id="hhckV3p7YOsD2mqn5yDh-68" style="edgeStyle=orthogonalEdgeStyle;rounded=0;orthogonalLoop=1;jettySize=auto;html=1;" edge="1" parent="1" source="hhckV3p7YOsD2mqn5yDh-69" target="hhckV3p7YOsD2mqn5yDh-34">
          <mxGeometry relative="1" as="geometry">
            <Array as="points">
              <mxPoint x="295" y="2455" />
            </Array>
          </mxGeometry>
        </mxCell>
        <mxCell id="hhckV3p7YOsD2mqn5yDh-69" value="Send" style="strokeWidth=1;shadow=0;dashed=0;align=center;html=1;shape=mxgraph.mockup.buttons.button;strokeColor=#666666;fontColor=#ffffff;mainText=;buttonStyle=round;fontSize=17;fontStyle=1;fillColor=#008cff;whiteSpace=wrap;" vertex="1" parent="1">
          <mxGeometry x="235" y="2140" width="120" height="40" as="geometry" />
        </mxCell>
        <mxCell id="hhckV3p7YOsD2mqn5yDh-70" value="" style="image;html=1;image=img/lib/clip_art/computers/Monitor_Tower_128x128.png" vertex="1" parent="1">
          <mxGeometry x="160" y="1940" width="270" height="160" as="geometry" />
        </mxCell>
        <mxCell id="hhckV3p7YOsD2mqn5yDh-71" value="Text" style="text;html=1;strokeColor=none;fillColor=none;align=center;verticalAlign=middle;whiteSpace=wrap;rounded=0;" vertex="1" parent="1">
          <mxGeometry x="775" y="2080" width="60" height="30" as="geometry" />
        </mxCell>
        <mxCell id="hhckV3p7YOsD2mqn5yDh-72" value="Cartesi Machine" style="text;html=1;align=center;verticalAlign=middle;resizable=0;points=[];autosize=1;strokeColor=none;fillColor=none;" vertex="1" parent="1">
          <mxGeometry x="240" y="1900" width="110" height="30" as="geometry" />
        </mxCell>
      </root>
    </mxGraphModel>
  </diagram>
</mxfile>
